<?xml version="1.0" standalone="no"?>
<!DOCTYPE svg PUBLIC "-//W3C//DTD SVG 1.1//EN" "http://www.w3.org/Graphics/SVG/1.1/DTD/svg11.dtd" >
<svg xmlns="http://www.w3.org/2000/svg">
<metadata>Generated by IcoMoon</metadata>
<defs>
<font id="icomoon" horiz-adv-x="1024">
<font-face units-per-em="1024" ascent="960" descent="-64" />
<missing-glyph horiz-adv-x="1024" />
<glyph unicode="&#x20;" horiz-adv-x="512" d="" />
<glyph unicode="&#xe900;" glyph-name="line" horiz-adv-x="56704" d="M56621.312 370.188c24.96 24.993 24.96 65.517 0 90.51l-407.296 407.293c-25.088 24.994-65.536 24.994-90.624 0-24.96-24.994-24.96-65.517 0-90.51l362.112-362.039-362.112-362.038c-24.96-24.995-24.96-65.517 0-90.51 25.088-24.993 65.536-24.993 90.624 0l407.296 407.293zM0 351.438l56576 0.004v128l-56576-0.004v-128z" />
<glyph unicode="&#xe901;" glyph-name="developer-guide" d="M213.333 64c-23.467 0-43.556 8.355-60.267 25.066-16.711 16.714-25.067 36.8-25.067 60.269v597.332c0 23.467 8.356 43.556 25.067 60.267s36.8 25.067 60.267 25.067h597.332c23.469 0 43.555-8.356 60.269-25.067 16.71-16.711 25.066-36.8 25.066-60.267v-597.332c0-23.469-8.355-43.555-25.066-60.269-16.714-16.71-36.8-25.066-60.269-25.066h-597.332zM213.333 746.667v-597.332h597.332v597.332h-85.331v-298.667l-106.669 64-106.666-64v298.667h-298.667z" />
<glyph unicode="&#xe902;" glyph-name="file-copy" d="M810.707 149.328h-469.331c-23.468 0-43.556 8.355-60.268 25.066-16.711 16.714-25.067 36.8-25.067 60.269v597.332c0 23.467 8.356 43.556 25.067 60.267s36.8 25.067 60.268 25.067h298.666l256-256v-426.666c0-23.469-8.355-43.555-25.066-60.269-16.714-16.71-36.8-25.066-60.269-25.066zM597.376 618.662v213.332h-256v-597.332h469.331v384h-213.331zM170.708-21.338c-23.467 0-43.556 8.355-60.267 25.066s-25.067 36.8-25.067 60.266v597.334h85.333v-597.334h469.333v-85.331h-469.333z" />
<glyph unicode="&#xe903;" glyph-name="folder-supervised" d="M170.708 191.994v0zM170.708 106.662c-23.467 0-43.556 8.355-60.267 25.066s-25.067 36.8-25.067 60.266v512.001c0 23.467 8.356 43.556 25.067 60.267s36.8 25.067 60.267 25.067h255.999l85.334-85.333h341.334c23.466 0 43.555-8.356 60.266-25.067s25.066-36.8 25.066-60.266v-139.734c-12.8 9.245-26.31 17.245-40.531 24-14.224 6.755-29.155 12.621-44.8 17.6v98.134h-376.534l-85.334 85.332h-220.799v-512.001h301.868c2.131-14.931 5.51-29.51 10.131-43.731 4.624-14.224 10.134-28.090 16.534-41.6h-328.533zM597.376 106.662v23.466c0 32 15.645 57.421 46.931 76.266 31.29 18.845 72.534 28.269 123.734 28.269s92.445-9.424 123.734-28.269c31.286-18.845 46.931-44.266 46.931-76.266v-23.466h-341.331zM768.042 277.328c-23.466 0-43.555 8.355-60.266 25.066-16.714 16.714-25.069 36.8-25.069 60.269 0 23.466 8.355 43.555 25.069 60.266 16.71 16.71 36.8 25.066 60.266 25.066s43.555-8.355 60.266-25.066c16.714-16.71 25.069-36.8 25.069-60.266 0-23.469-8.355-43.555-25.069-60.269-16.71-16.71-36.8-25.066-60.266-25.066z" />
<glyph unicode="&#xe904;" glyph-name="person-pin" d="M512-21.334l-128 128h-170.667c-23.467 0-43.556 8.355-60.267 25.066s-25.067 36.8-25.067 60.266v597.334c0 23.467 8.356 43.556 25.067 60.267s36.8 25.067 60.267 25.067h597.332c23.469 0 43.555-8.356 60.269-25.067 16.71-16.711 25.066-36.8 25.066-60.267v-597.334c0-23.466-8.355-43.555-25.066-60.266-16.714-16.71-36.8-25.066-60.269-25.066h-170.666l-128-128zM213.333 241.066c38.4 37.686 83.022 67.376 133.867 89.066s105.779 32.534 164.8 32.534c59.021 0 113.955-10.845 164.8-32.534s95.466-51.379 133.866-89.066v548.265h-597.332v-548.265zM512 447.997c41.245 0 76.445 14.579 105.6 43.734s43.734 64.355 43.734 105.6c0 41.245-14.579 76.444-43.734 105.6s-64.355 43.733-105.6 43.733c-41.245 0-76.445-14.578-105.6-43.733s-43.734-64.355-43.734-105.6c0-41.245 14.579-76.445 43.734-105.6s64.355-43.734 105.6-43.734zM298.667 191.997h426.668v10.669c-29.869 24.886-62.934 43.555-99.2 56-36.269 12.442-74.314 18.666-114.134 18.666s-77.866-6.224-114.134-18.666c-36.266-12.445-69.331-31.114-99.199-56v-10.669zM512 533.331c-17.779 0-32.89 6.221-45.334 18.666s-18.666 27.555-18.666 45.334c0 17.776 6.221 32.89 18.666 45.333s27.555 18.667 45.334 18.667 32.89-6.222 45.334-18.667c12.445-12.443 18.666-27.557 18.666-45.333 0-17.779-6.221-32.89-18.666-45.334s-27.555-18.666-45.334-18.666z" />
<glyph unicode="&#xe905;" glyph-name="star" horiz-adv-x="935" d="M467.478 960l61.952-404.696 381.453 148.696-319.501-256 319.501-256-381.453 148.698-61.952-404.698-61.952 404.698-381.453-148.698 319.501 256-319.501 256 381.453-148.696 61.952 404.696z" />
<glyph unicode="&#xe906;" glyph-name="list-alt" d="M341.334 234.666c12.086 0 22.221 4.090 30.4 12.269 8.176 8.176 12.266 18.31 12.266 30.4 0 12.086-4.090 22.221-12.266 30.4-8.179 8.176-18.314 12.266-30.4 12.266-12.090 0-22.223-4.090-30.401-12.266-8.178-8.179-12.267-18.314-12.267-30.4 0-12.090 4.089-22.224 12.267-30.4 8.178-8.179 18.311-12.269 30.401-12.269zM341.334 405.334c12.086 0 22.221 4.086 30.4 12.266 8.176 8.179 12.266 18.31 12.266 30.4s-4.090 22.221-12.266 30.4c-8.179 8.179-18.314 12.266-30.4 12.266-12.090 0-22.223-4.086-30.401-12.266s-12.267-18.31-12.267-30.4c0-12.090 4.089-22.221 12.267-30.4s18.311-12.266 30.401-12.266zM341.334 576c12.086 0 22.221 4.090 30.4 12.266 8.176 8.179 12.266 18.314 12.266 30.4 0 12.090-4.090 22.223-12.266 30.401-8.179 8.178-18.314 12.267-30.4 12.267-12.090 0-22.223-4.089-30.401-12.267s-12.267-18.311-12.267-30.401c0-12.086 4.089-22.221 12.267-30.4 8.178-8.176 18.311-12.266 30.401-12.266zM469.334 234.666h256v85.334h-256v-85.334zM469.334 405.334h256v85.331h-256v-85.331zM469.334 576h256v85.333h-256v-85.333zM213.333 64c-23.467 0-43.556 8.355-60.267 25.066-16.711 16.714-25.067 36.8-25.067 60.269v597.332c0 23.467 8.356 43.556 25.067 60.267s36.8 25.067 60.267 25.067h597.332c23.469 0 43.555-8.356 60.269-25.067 16.71-16.711 25.066-36.8 25.066-60.267v-597.332c0-23.469-8.355-43.555-25.066-60.269-16.714-16.71-36.8-25.066-60.269-25.066h-597.332zM213.333 149.334h597.332v597.332h-597.332v-597.332z" />
<glyph unicode="&#xe907;" glyph-name="fact-check" d="M170.708 64c-23.467 0-43.556 8.355-60.267 25.066-16.711 16.714-25.067 36.8-25.067 60.269v597.332c0 23.467 8.356 43.556 25.067 60.267s36.8 25.067 60.267 25.067h682.668c23.466 0 43.555-8.356 60.266-25.067s25.066-36.8 25.066-60.267v-597.332c0-23.469-8.355-43.555-25.066-60.269-16.71-16.71-36.8-25.066-60.266-25.066h-682.668zM170.708 149.334h682.668v597.332h-682.668v-597.332zM213.375 234.666h213.332v85.334h-213.332v-85.334zM620.842 320l211.2 211.2-60.8 60.8-150.4-151.466-60.8 60.8-59.734-60.8 120.534-120.534zM213.375 405.334h213.332v85.331h-213.332v-85.331zM213.375 576h213.332v85.333h-213.332v-85.333z" />
<glyph unicode="&#xe908;" glyph-name="social-distance" d="M256.042 64l-170.667 170.666 170.667 170.669 59.733-59.734-68.267-68.266h529.068l-68.269 68.266 59.734 59.734 170.666-170.669-170.666-170.666-59.734 59.734 68.269 68.266h-529.068l68.267-68.266-59.733-59.734zM85.375 490.666v24.534c0 17.066 4.622 32.71 13.867 46.934 9.244 14.221 22.044 24.886 38.4 32 18.489 7.821 37.511 13.866 57.067 18.131 19.556 4.269 40 6.4 61.333 6.4s41.778-2.131 61.333-6.4c19.556-4.266 38.577-10.31 57.067-18.131 16.355-7.114 29.155-17.779 38.4-32 9.245-14.224 13.866-29.869 13.866-46.934v-24.534h-341.332zM597.376 490.666v24.534c0 17.066 4.621 32.71 13.866 46.934 9.245 14.221 22.045 24.886 38.4 32 18.49 7.821 37.51 13.866 57.066 18.131 19.555 4.269 40 6.4 61.334 6.4s41.779-2.131 61.334-6.4c19.555-4.266 38.576-10.31 57.066-18.131 16.355-7.114 29.155-17.779 38.4-32 9.245-14.224 13.866-29.869 13.866-46.934v-24.534h-341.331zM256.042 661.333c-23.467 0-43.556 8.356-60.267 25.067s-25.067 36.8-25.067 60.267c0 23.467 8.356 43.556 25.067 60.267s36.8 25.067 60.267 25.067c23.467 0 43.556-8.356 60.267-25.067 16.713-16.711 25.068-36.8 25.068-60.267s-8.355-43.556-25.068-60.267c-16.711-16.711-36.8-25.067-60.267-25.067zM768.042 661.333c-23.466 0-43.555 8.356-60.266 25.067-16.714 16.711-25.069 36.8-25.069 60.267s8.355 43.556 25.069 60.267c16.71 16.711 36.8 25.067 60.266 25.067s43.555-8.356 60.266-25.067c16.714-16.711 25.069-36.8 25.069-60.267s-8.355-43.556-25.069-60.267c-16.71-16.711-36.8-25.067-60.266-25.067z" />
<glyph unicode="&#xe909;" glyph-name="speed" d="M445.907 298.646c17.069-17.069 39.114-25.424 66.134-25.069 27.021 0.358 46.934 10.134 59.734 29.334l238.931 358.401-358.4-238.935c-19.2-12.8-29.331-32.355-30.4-58.666-1.066-26.31 6.934-48 24-65.066zM512.042 789.313c41.955 0 82.31-5.867 121.066-17.6s75.2-29.333 109.334-52.8l-81.066-51.2c-23.469 12.089-47.824 21.156-73.069 27.2s-50.666 9.067-76.266 9.067c-94.579 0-175.11-33.244-241.6-99.733-66.489-66.49-99.733-147.024-99.733-241.6 0-29.869 4.089-59.379 12.267-88.534s19.733-56.534 34.667-82.134h588.8c16.355 27.024 28.266 55.114 35.734 84.269 7.466 29.155 11.2 59.376 11.2 90.666 0 25.6-3.024 50.49-9.069 74.666-6.045 24.179-15.11 47.645-27.2 70.4l51.2 81.069c21.334-33.424 38.224-68.979 50.669-106.669 12.445-37.686 19.021-76.8 19.731-117.331 0.714-40.534-3.91-79.29-13.866-116.269-9.955-36.976-24.534-72.176-43.734-105.6-7.821-12.8-18.486-22.755-32-29.866-13.51-7.11-27.731-10.666-42.666-10.666h-588.8c-14.933 0-29.156 3.555-42.667 10.666s-24.178 17.066-32 29.866c-18.489 32-32.711 65.958-42.667 101.869s-14.933 73.776-14.933 113.6c0 59.021 11.2 114.31 33.6 165.866s52.978 96.71 91.733 135.467c38.756 38.756 84.089 69.333 135.999 91.733 51.914 22.4 107.024 33.6 165.334 33.6z" />
<glyph unicode="&#xe90a;" glyph-name="chart-data" d="M315.733 277.334l130.132 130.131 85.334-85.331 151.466 150.4v-67.2h85.334v213.331h-213.334v-85.331h67.2l-90.666-90.669-85.334 85.334-189.866-190.934 59.733-59.731zM213.333 64c-23.467 0-43.556 8.355-60.267 25.066-16.711 16.714-25.067 36.8-25.067 60.269v597.332c0 23.467 8.356 43.556 25.067 60.267s36.8 25.067 60.267 25.067h597.332c23.469 0 43.555-8.356 60.269-25.067 16.71-16.711 25.066-36.8 25.066-60.267v-597.332c0-23.469-8.355-43.555-25.066-60.269-16.714-16.71-36.8-25.066-60.269-25.066h-597.332zM213.333 149.334h597.332v597.332h-597.332v-597.332z" />
<glyph unicode="&#xe90b;" glyph-name="manage-history" d="M128 533.334v255.999h85.333v-100.267c36.267 45.511 80.533 80.711 132.801 105.6 52.266 24.889 107.555 37.333 165.866 37.333 106.666 0 197.334-37.333 272-112s112-165.334 112-272h-85.334c0 83.2-28.976 153.779-86.931 211.733-57.955 57.956-128.534 86.933-211.734 86.933-49.066 0-94.934-11.378-137.6-34.133s-78.578-54.044-107.733-93.868h117.333v-85.331h-256zM130.133 405.334h87.467c8.533-66.134 35.733-122.134 81.6-168 45.866-45.869 100.8-73.779 164.8-83.734l51.2-89.6c-98.134 0-184.179 32.534-258.133 97.6-73.956 65.066-116.267 146.31-126.933 243.734zM569.6 330.666l-100.266 100.269v230.399h85.331v-196.268l59.734-59.731-44.8-74.669zM766.934-64l-12.8 64c-8.534 3.555-16.534 7.29-24 11.2-7.469 3.91-15.114 8.71-22.934 14.4l-61.866-19.2-42.669 72.534 49.069 42.666c-1.424 9.245-2.134 18.49-2.134 27.734s0.71 18.486 2.134 27.731l-49.069 42.669 42.669 72.531 61.866-19.2c7.821 5.69 15.466 10.49 22.934 14.4 7.466 3.914 15.466 7.645 24 11.2l12.8 64h85.331l12.8-64c8.534-3.555 16.714-7.645 24.534-12.266s15.29-9.779 22.4-15.466l61.866 21.331 42.669-74.666-49.069-42.666c1.424-9.245 2.134-18.134 2.134-26.669 0-8.531-0.71-17.421-2.134-26.666l49.069-42.666-42.669-72.534-61.866 19.2c-7.821-5.69-15.466-10.49-22.934-14.4-7.466-3.91-15.466-7.645-24-11.2l-12.8-64h-85.331zM809.6 64c23.466 0 43.555 8.355 60.266 25.066 16.714 16.714 25.069 36.8 25.069 60.269 0 23.466-8.355 43.555-25.069 60.266-16.71 16.71-36.8 25.066-60.266 25.066s-43.555-8.355-60.266-25.066c-16.714-16.71-25.069-36.8-25.069-60.266 0-23.469 8.355-43.555 25.069-60.269 16.71-16.71 36.8-25.066 60.266-25.066z" />
<glyph unicode="&#xe90c;" glyph-name="deployed-code-account" d="M725.376 62.912c-5.69 0-11.379 0.71-17.069 2.134-5.686 1.421-11.021 3.91-16 7.466l-128 74.666c-9.955 5.69-17.6 13.334-22.931 22.934-5.334 9.6-8 20.090-8 31.469v150.397c0 11.379 2.666 21.869 8 31.469 5.331 9.6 12.976 17.245 22.931 22.931l128 74.669c4.979 3.555 10.314 6.045 16 7.466 5.69 1.424 11.379 2.134 17.069 2.134 5.686 0 11.2-0.89 16.531-2.669 5.334-1.776 10.49-4.086 15.469-6.931l128-74.669c9.955-5.686 17.776-13.331 23.466-22.931s8.534-20.090 8.534-31.469v-150.397c0-11.379-2.845-21.869-8.534-31.469s-13.51-17.245-23.466-22.934l-128-74.666c-4.979-2.845-10.134-5.155-15.469-6.931-5.331-1.779-10.845-2.669-16.531-2.669zM426.707 447.978c-46.931 0-87.11 16.714-120.532 50.134-33.422 33.424-50.133 73.6-50.133 120.534s16.711 87.11 50.133 120.533 73.601 50.133 120.532 50.133c46.934 0 87.114-16.711 120.534-50.133s50.134-73.6 50.134-120.533c0-46.934-16.714-87.11-50.134-120.534-33.421-33.421-73.6-50.134-120.534-50.134zM85.375 106.646v119.466c0 23.469 6.044 45.51 18.133 66.134 12.089 20.621 28.8 36.266 50.133 46.931 36.267 18.49 77.156 34.134 122.667 46.934s95.644 19.2 150.399 19.2h14.934c4.266 0 8.534-0.71 12.8-2.134-5.69-12.8-10.49-26.131-14.4-40-3.91-13.866-6.934-28.266-9.066-43.2h-4.269c-50.486 0-95.821-6.4-135.999-19.197-40.178-12.803-73.067-25.603-98.667-38.4-6.4-3.558-11.556-8.534-15.467-14.934s-5.867-13.51-5.867-21.334v-34.134h268.799c4.269-14.931 9.955-29.686 17.069-44.266 7.11-14.576 14.931-28.266 23.466-41.066h-394.667zM426.707 533.312c23.469 0 43.555 8.355 60.269 25.066 16.71 16.714 25.066 36.8 25.066 60.269 0 23.466-8.355 43.555-25.066 60.266-16.714 16.711-36.8 25.067-60.269 25.067-23.466 0-43.555-8.356-60.266-25.067s-25.066-36.8-25.066-60.266c0-23.469 8.355-43.555 25.066-60.269 16.71-16.71 36.8-25.066 60.266-25.066zM625.107 369.046l100.269-58.669 100.266 58.669-100.266 57.6-100.269-57.6zM757.376 147.178l96 55.469v117.331l-96-56.531v-116.269zM597.376 202.646l96-56.534v116.269l-96 56.531v-116.266z" />
<glyph unicode="&#xe90d;" glyph-name="cancel" horiz-adv-x="983" d="M344.064 228.569l147.456 147.026 147.456-147.026 57.344 57.176-147.456 147.026 147.456 147.028-57.344 57.177-147.456-147.029-147.456 147.029-57.344-57.177 147.456-147.028-147.456-147.026 57.344-57.176zM491.52 24.363c-56.66 0-109.909 10.719-159.744 32.162s-93.184 50.541-130.048 87.298c-36.864 36.758-66.048 79.978-87.552 129.671-21.504 49.689-32.256 102.781-32.256 159.277s10.752 109.588 32.256 159.28c21.504 49.69 50.688 92.913 87.552 129.67s80.213 65.856 130.048 87.297c49.835 21.441 103.084 32.162 159.744 32.162s109.908-10.721 159.744-32.162c49.836-21.441 93.184-50.541 130.048-87.297s66.048-79.98 87.552-129.67c21.504-49.691 32.256-102.784 32.256-159.28s-10.752-109.588-32.256-159.277c-21.504-49.693-50.688-92.914-87.552-129.671s-80.212-65.855-130.048-87.298c-49.836-21.443-103.084-32.162-159.744-32.162zM491.52 106.045c91.476 0 168.96 31.65 232.448 94.953s95.232 140.562 95.232 231.772c0 91.214-31.744 168.469-95.232 231.773s-140.972 94.955-232.448 94.955c-91.477 0-168.96-31.651-232.448-94.955s-95.232-140.559-95.232-231.773c0-91.21 31.744-168.468 95.232-231.772s140.971-94.953 232.448-94.953z" />
<glyph unicode="&#xe90e;" glyph-name="receipt-long" d="M256 21.331c-35.556 0-65.778 12.445-90.667 37.334-24.889 24.886-37.333 55.11-37.333 90.666v128h128v597.333l64-64 64 64 64-64 64 64 64-64 64 64 64-64 64 64 64-64 64 64v-725.333c0-35.555-12.445-65.779-37.334-90.666-24.886-24.89-55.11-37.334-90.666-37.334h-512zM768 106.666c12.090 0 22.221 4.086 30.4 12.266 8.179 8.176 12.266 18.31 12.266 30.4v597.333h-469.331v-469.333h384v-128c0-12.090 4.086-22.224 12.266-30.4 8.179-8.179 18.31-12.266 30.4-12.266zM384 575.997v85.334h256v-85.334h-256zM384 447.997v85.334h256v-85.334h-256zM725.334 575.997c-12.090 0-22.224 4.090-30.4 12.269-8.179 8.176-12.269 18.31-12.269 30.4 0 12.086 4.090 22.221 12.269 30.398 8.176 8.178 18.31 12.267 30.4 12.267 12.086 0 22.221-4.089 30.4-12.267 8.176-8.178 12.266-18.312 12.266-30.398 0-12.090-4.090-22.224-12.266-30.4-8.179-8.179-18.314-12.269-30.4-12.269zM725.334 447.997c-12.090 0-22.224 4.090-30.4 12.269-8.179 8.176-12.269 18.31-12.269 30.4 0 12.086 4.090 22.221 12.269 30.4 8.176 8.176 18.31 12.266 30.4 12.266 12.086 0 22.221-4.090 30.4-12.266 8.176-8.179 12.266-18.314 12.266-30.4 0-12.090-4.090-22.224-12.266-30.4-8.179-8.179-18.314-12.269-30.4-12.269zM256 106.666h384v85.331h-426.667v-42.666c0-12.090 4.089-22.224 12.267-30.4 8.178-8.179 18.311-12.266 30.4-12.266z" />
<glyph unicode="&#xe90f;" glyph-name="unknown-document" d="M298.667 362.666h156.799c7.824 16.355 16.89 31.642 27.2 45.866 10.314 14.221 21.869 27.376 34.669 39.466h-218.668v-85.331zM298.667 191.997h131.199c-2.131 14.224-3.2 28.445-3.2 42.669 0 14.221 1.069 28.442 3.2 42.666h-131.199v-85.334zM213.333 21.331c-23.467 0-43.556 8.355-60.267 25.066s-25.067 36.8-25.067 60.269v682.665c0 23.467 8.356 43.556 25.067 60.267s36.8 25.067 60.267 25.067h341.332l256-255.998v-98.134c-13.51 4.266-27.376 7.466-41.6 9.6-14.221 2.134-28.8 3.2-43.731 3.2v42.666h-213.334v213.334h-298.667v-682.665h242.132c7.824-16.358 16.89-31.645 27.2-45.869 10.314-14.221 21.869-27.376 34.669-39.466h-304.001zM725.334 447.997c59.021 0 109.331-20.8 150.931-62.4s62.4-91.91 62.4-150.931c0-59.024-20.8-109.334-62.4-150.934s-91.91-62.4-150.931-62.4c-59.024 0-109.334 20.8-150.934 62.4s-62.4 91.91-62.4 150.934c0 59.021 20.8 109.331 62.4 150.931s91.91 62.4 150.934 62.4zM725.334 106.666c7.821 0 14.4 2.666 19.731 8 5.334 5.331 8 11.91 8 19.731 0 7.824-2.666 14.4-8 19.734-5.331 5.334-11.91 8-19.731 8-7.824 0-14.4-2.666-19.734-8s-8-11.91-8-19.734c0-7.821 2.666-14.4 8-19.731 5.334-5.334 11.91-8 19.734-8zM706.134 187.731h38.4v10.666c0 7.824 2.131 14.755 6.4 20.8 4.266 6.045 9.245 11.91 14.931 17.6 9.955 8.534 17.779 16.71 23.469 24.534 5.686 7.821 8.531 18.845 8.531 33.066 0 20.624-6.755 37.155-20.266 49.6s-30.934 18.669-52.266 18.669c-16.355 0-31.114-4.8-44.269-14.4s-22.576-22.579-28.266-38.934l34.134-14.934c2.131 8.534 6.576 16 13.331 22.4s15.114 9.6 25.069 9.6c10.666 0 19.021-2.666 25.066-8 6.045-5.331 9.066-13.331 9.066-24 0-7.821-2.131-14.4-6.4-19.731-4.266-5.334-9.245-10.845-14.931-16.534-4.269-4.266-8.714-8.534-13.334-12.8s-8.71-9.245-12.266-14.934c-2.134-4.266-3.734-8.531-4.8-12.8-1.069-4.266-1.6-9.245-1.6-14.931v-14.934z" />
<glyph unicode="&#xe910;" glyph-name="captive-portal" d="M401.107 125.872c-12.8 23.466-24 47.821-33.6 73.066s-17.6 51.379-24 78.4h-125.866c20.622-35.555 46.4-66.486 77.333-92.8 30.932-26.31 66.311-45.866 106.132-58.666zM181.375 362.672h145.067c-2.134 14.221-3.734 28.266-4.8 42.134-1.066 13.866-1.6 28.266-1.6 43.2 0 14.931 0.534 29.331 1.6 43.2 1.066 13.866 2.666 27.91 4.8 42.131h-145.067c-3.556-14.221-6.222-28.266-8-42.131-1.778-13.869-2.667-28.269-2.667-43.2 0-14.934 0.889-29.334 2.667-43.2 1.778-13.869 4.444-27.914 8-42.134zM217.642 618.672h125.866c6.4 27.022 14.4 53.156 24 78.4s20.8 49.6 33.6 73.067c-39.821-12.8-75.2-32.356-106.132-58.667s-56.711-57.244-77.333-92.8zM430.976 618.672h162.131c-8.531 31.289-19.555 60.8-33.066 88.533s-29.51 54.4-48 80c-18.49-25.6-34.49-52.267-48-80s-24.534-57.244-33.066-88.533zM680.576 618.672h125.866c-20.621 35.556-46.4 66.489-77.334 92.8-30.931 26.311-66.31 45.867-106.131 58.667 12.8-23.467 24-47.822 33.6-73.067s17.6-51.378 24-78.4zM512.042 21.338c-58.31 0-113.421 11.2-165.334 33.6-51.91 22.4-97.243 52.979-135.999 91.734s-69.333 84.090-91.733 136c-22.4 51.91-33.6 107.021-33.6 165.334 0 59.021 11.2 114.31 33.6 165.866s52.978 96.711 91.733 135.467c38.756 38.756 84.089 69.333 135.999 91.733 51.914 22.4 107.024 33.6 165.334 33.6 59.021 0 114.31-11.2 165.866-33.6s96.714-52.978 135.469-91.733c38.755-38.756 69.331-83.911 91.731-135.467s33.6-106.845 33.6-165.866c0-7.114-0.176-14.224-0.531-21.334s-0.89-14.221-1.6-21.334h-86.4c1.421 7.114 2.31 14.045 2.666 20.8s0.534 14.045 0.534 21.869c0 14.931-0.89 29.331-2.669 43.2-1.776 13.866-4.445 27.91-8 42.131h-145.066c2.134-14.221 3.734-28.266 4.8-42.131 1.066-13.869 1.6-28.269 1.6-43.2v-21.869c0-6.755-0.355-13.686-1.066-20.8h-85.334c0.71 7.114 1.066 14.045 1.066 20.8v21.869c0 14.931-0.531 29.331-1.6 43.2-1.066 13.866-2.666 27.91-4.8 42.131h-200.531c-2.134-14.221-3.734-28.266-4.8-42.131-1.069-13.869-1.6-28.269-1.6-43.2 0-14.934 0.531-29.334 1.6-43.2 1.066-13.869 2.666-27.914 4.8-42.134h142.931v-85.334h-123.731c8.531-31.286 19.555-60.8 33.066-88.531 13.51-27.734 29.51-54.4 48-80 7.821 11.376 15.29 22.931 22.4 34.666s13.866 23.645 20.266 35.734v-155.734c-7.11-0.71-14.045-1.245-20.8-1.6s-14.045-0.534-21.866-0.534zM851.242 48.006l-125.866 125.866v-94.934h-85.334v241.069h241.066v-85.334h-96l125.869-125.866-59.734-60.8z" />
<glyph unicode="&#xe911;" glyph-name="polygon" horiz-adv-x="878" d="M877.714 448l-877.714-506.748v1013.497l877.714-506.749z" />
<glyph unicode="&#xe912;" glyph-name="north-east" d="M230.4 106.667l-59.733 59.733 494.933 494.933h-281.6v85.333h426.667v-426.667h-85.333v281.6l-494.933-494.933z" />
<glyph unicode="&#xe913;" glyph-name="deployed-code-alert" d="M469.333 862.933c13.513 7.822 27.733 11.733 42.667 11.733s29.154-3.911 42.667-11.733l298.667-171.733c13.513-7.822 24-18.133 31.467-30.933s11.2-27.022 11.2-42.667v-181.333c-12.8 9.246-26.313 17.246-40.533 24s-29.154 12.621-44.8 17.6v93.867l-153.6-88.533c-39.821-9.954-75.913-26.846-108.267-50.667s-58.846-52.8-79.467-86.933v77.867l-256 148.267v-292.267l215.467-124.8c2.846-22.754 8.179-44.621 16-65.6s17.779-40.713 29.867-59.2c-1.421 0.713-2.313 1.246-2.667 1.6s-1.246 0.887-2.667 1.6l-298.667 171.733c-13.511 7.821-24 18.133-31.467 30.933s-11.2 27.021-11.2 42.667v339.2c0 15.645 3.733 29.867 11.2 42.667s17.955 23.111 31.467 30.933l298.667 171.733zM512 789.333l-252.8-146.133 252.8-146.133 252.8 146.133-252.8 146.133zM725.333-21.333c-59.021 0-109.333 20.8-150.933 62.4s-62.4 91.913-62.4 150.933c0 59.021 20.8 109.333 62.4 150.933s91.913 62.4 150.933 62.4c59.021 0 109.333-20.8 150.933-62.4s62.4-91.913 62.4-150.933c0-59.021-20.8-109.333-62.4-150.933s-91.913-62.4-150.933-62.4zM725.333 64c5.687 0 10.667 2.133 14.933 6.4s6.4 9.246 6.4 14.933c0 5.687-2.133 10.667-6.4 14.933s-9.246 6.4-14.933 6.4c-5.687 0-10.667-2.133-14.933-6.4s-6.4-9.246-6.4-14.933c0-5.687 2.133-10.667 6.4-14.933s9.246-6.4 14.933-6.4zM704 149.333h42.667v170.667h-42.667v-170.667z" />
<glyph unicode="&#xe914;" glyph-name="notification-important" d="M469.333 405.333h85.333v213.333h-85.333v-213.333zM512 277.333c12.087 0 22.221 4.087 30.4 12.267s12.267 18.313 12.267 30.4c0 12.087-4.087 22.221-12.267 30.4s-18.313 12.267-30.4 12.267c-12.087 0-22.221-4.087-30.4-12.267s-12.267-18.313-12.267-30.4c0-12.087 4.087-22.221 12.267-30.4s18.313-12.267 30.4-12.267zM170.667 149.333v85.333h85.333v298.667c0 59.022 17.778 111.467 53.333 157.333s81.778 75.911 138.667 90.133v29.867c0 17.778 6.221 32.889 18.667 45.333s27.554 18.667 45.333 18.667c17.779 0 32.887-6.222 45.333-18.667s18.667-27.555 18.667-45.333v-29.867c56.887-14.222 103.113-44.267 138.667-90.133s53.333-98.311 53.333-157.333v-298.667h85.333v-85.333h-682.667zM512 21.333c-23.467 0-43.554 8.354-60.267 25.067s-25.067 36.8-25.067 60.267h170.667c0-23.467-8.354-43.554-25.067-60.267s-36.8-25.067-60.267-25.067zM341.333 234.667h341.333v298.667c0 46.933-16.713 87.111-50.133 120.533s-73.6 50.133-120.533 50.133c-46.933 0-87.111-16.711-120.533-50.133s-50.133-73.6-50.133-120.533v-298.667z" />
<glyph unicode="&#xe915;" glyph-name="tabs" d="M213.333 64c-23.467 0-43.555 8.354-60.267 25.067s-25.067 36.8-25.067 60.267v597.333c0 23.467 8.355 43.555 25.067 60.267s36.8 25.067 60.267 25.067h597.333c23.467 0 43.554-8.355 60.267-25.067s25.067-36.8 25.067-60.267v-597.333c0-23.467-8.354-43.554-25.067-60.267s-36.8-25.067-60.267-25.067h-597.333zM213.333 149.333h597.333v298.667h-597.333v-298.667zM213.333 533.333h597.333v213.333h-597.333v-213.333zM512 618.667h256v85.333h-256v-85.333z" />
<glyph unicode="&#xe916;" glyph-name="box-edit" d="M230.4 704h563.2l-36.266 42.667h-490.668l-36.267-42.667zM426.666 416l85.334 42.666 85.334-42.666v202.666h-170.669v-202.666zM213.333 64c-23.467 0-43.556 8.355-60.267 25.066-16.711 16.714-25.067 36.8-25.067 60.269v532.266c0 9.956 1.6 19.556 4.8 28.8s8 17.778 14.4 25.6l53.333 65.067c7.822 9.956 17.6 17.6 29.333 22.933s24 8 36.8 8h490.668c12.8 0 25.066-2.667 36.8-8 11.731-5.333 21.51-12.978 29.331-22.933l53.334-65.067c6.4-7.822 11.2-16.356 14.4-25.6s4.8-18.844 4.8-28.8v-148.266c-14.934 0-29.69-1.069-44.266-3.2-14.579-2.134-28.269-6.4-41.069-12.8v101.331h-128v-218.666l-82.131-82.134-88.534 44.8-170.666-85.331v341.331h-128.001v-469.331h298.667v-85.334h-298.667zM597.334 64v131.2l235.731 234.666c6.4 6.4 13.514 11.024 21.334 13.869s15.645 4.266 23.466 4.266c8.534 0 16.714-1.6 24.534-4.8s14.934-8 21.334-14.4l39.466-39.466c5.69-6.4 10.134-13.514 13.334-21.334s4.8-15.645 4.8-23.466c0-7.824-1.424-15.824-4.269-24-2.845-8.179-7.466-15.469-13.866-21.869l-234.666-234.666h-131.2zM661.334 128h40.531l129.069 130.134-19.2 20.266-20.269 19.2-130.131-129.066v-40.534zM811.734 278.4l-20.269 19.2 39.469-39.466-19.2 20.266z" />
<glyph unicode="&#xe917;" glyph-name="display-settings" horiz-adv-x="993" d="M310.343 323.879h62.061v165.494h-62.061v-51.715h-62.061v-62.061h62.061v-51.718zM413.777 375.597h330.991v62.061h-330.991v-62.061zM620.646 489.373h62.061v51.718h62.061v62.061h-62.061v51.717h-62.061v-165.496zM248.283 541.091h330.991v62.061h-330.991v-62.061zM331.031 75.636v82.749h-165.496c-22.756 0-42.236 8.102-58.441 24.306s-24.307 35.685-24.307 58.439v496.486c0 22.756 8.102 42.236 24.307 58.441s35.685 24.307 58.441 24.307h661.981c22.755 0 42.235-8.102 58.439-24.307s24.306-35.685 24.306-58.441v-496.486c0-22.755-8.102-42.235-24.306-58.439s-35.685-24.306-58.439-24.306h-165.497v-82.749h-330.988zM165.535 241.13h661.981v496.486h-661.981v-496.486z" />
<glyph unicode="&#xe918;" glyph-name="groups" horiz-adv-x="993" d="M0 199.758v65.164c0 29.653 15.17 53.785 45.511 72.403s70.335 27.927 119.984 27.927c8.964 0 17.584-0.171 25.859-0.515s16.205-1.207 23.79-2.588c-9.654-14.479-16.894-29.649-21.721-45.509s-7.24-32.411-7.24-49.648v-67.233h-186.182zM248.242 199.758v67.233c0 22.066 6.034 42.235 18.101 60.509s29.134 34.304 51.199 48.097c22.066 13.79 48.441 24.132 79.127 31.030 30.686 6.895 63.957 10.342 99.815 10.342 36.547 0 70.163-3.447 100.848-10.342 30.686-6.898 57.062-17.24 79.127-31.030 22.066-13.793 38.962-29.823 50.682-48.097 11.723-18.274 17.585-38.443 17.585-60.509v-67.233h-496.485zM806.788 199.758v67.233c0 17.926-2.24 34.822-6.724 50.682-4.481 15.86-11.205 30.686-20.17 44.476 7.587 1.381 15.344 2.243 23.273 2.588 7.931 0.344 16.033 0.515 24.309 0.515 49.648 0 89.643-9.135 119.982-27.409 30.341-18.274 45.512-42.58 45.512-72.921v-65.164h-186.182zM336.161 282.506h321.682c-6.895 13.79-26.031 25.858-57.406 36.2-31.375 10.346-66.026 15.515-103.952 15.515s-72.577-5.17-103.952-15.515c-31.375-10.342-50.167-22.41-56.373-36.2zM165.495 406.627c-22.755 0-42.236 8.102-58.44 24.306s-24.307 35.685-24.307 58.439c0 23.446 8.102 43.098 24.307 58.958s35.685 23.791 58.44 23.791c23.445 0 43.098-7.931 58.958-23.791s23.79-35.511 23.79-58.958c0-22.755-7.93-42.235-23.79-58.439s-35.512-24.306-58.958-24.306zM827.476 406.627c-22.758 0-42.235 8.102-58.442 24.306-16.204 16.204-24.306 35.685-24.306 58.439 0 23.446 8.102 43.098 24.306 58.958 16.207 15.86 35.685 23.791 58.442 23.791 23.443 0 43.098-7.931 58.958-23.791s23.788-35.511 23.788-58.958c0-22.755-7.928-42.235-23.788-58.439s-35.514-24.306-58.958-24.306zM496.485 448c-34.478 0-63.786 12.068-87.918 36.203-24.135 24.132-36.203 53.44-36.203 87.918 0 35.167 12.068 64.645 36.203 88.436 24.132 23.79 53.44 35.685 87.918 35.685 35.167 0 64.645-11.895 88.436-35.685s35.685-53.27 35.685-88.436c0-34.478-11.894-63.786-35.685-87.918-23.791-24.135-53.27-36.203-88.436-36.203zM496.485 530.749c11.723 0 21.547 3.963 29.479 11.894s11.894 17.756 11.894 29.479c0 11.723-3.963 21.547-11.894 29.479s-17.756 11.894-29.479 11.894c-11.723 0-21.547-3.963-29.479-11.894s-11.894-17.756-11.894-29.479c0-11.723 3.963-21.547 11.894-29.479s17.756-11.894 29.479-11.894z" />
<glyph unicode="&#xe919;" glyph-name="monitoring" d="M128 64v85.334l85.333 85.331v-170.666h-85.333zM298.667 64v256l85.333 85.334v-341.334h-85.333zM469.334 64v341.334l85.331-86.4v-254.934h-85.331zM640 64v254.934l85.334 85.331v-340.266h-85.334zM810.666 64v426.666l85.334 85.334v-512h-85.334zM128 284.8v120.534l298.666 298.666 170.669-170.666 298.666 298.666v-120.533l-298.666-298.667-170.669 170.666-298.666-298.666z" />
<glyph unicode="&#xe91a;" glyph-name="folder-open" horiz-adv-x="993" d="M165.535 117.021c-22.756 0-42.236 8.102-58.441 24.306s-24.307 35.685-24.307 58.439v496.486c0 22.755 8.102 42.236 24.307 58.44s35.685 24.307 58.441 24.307h248.241l82.749-82.747h330.991c22.755 0 42.235-8.103 58.439-24.307s24.306-35.685 24.306-58.439h-447.87l-82.749 82.746h-214.108v-496.486l99.297 330.991h707.49l-106.536-354.779c-5.517-17.929-15.689-32.237-30.512-42.927-14.826-10.687-31.204-16.030-49.133-16.030h-620.605zM252.42 199.767h533.72l74.473 248.242h-533.721l-74.472-248.242z" />
<glyph unicode="&#xe91b;" glyph-name="admin-panel-settings" horiz-adv-x="1067" d="M746.667 234.667c17.779 0 32.887 6.221 45.333 18.667s18.667 27.554 18.667 45.333c0 17.779-6.221 32.887-18.667 45.333s-27.554 18.667-45.333 18.667c-17.779 0-32.887-6.221-45.333-18.667s-18.667-27.554-18.667-45.333c0-17.779 6.221-32.887 18.667-45.333s27.554-18.667 45.333-18.667zM746.667 106.667c22.046 0 42.313 5.154 60.8 15.467s33.421 24 44.8 41.067c-15.646 9.246-32.354 16.354-50.133 21.333s-36.267 7.467-55.467 7.467c-19.2 0-37.687-2.487-55.467-7.467s-34.487-12.087-50.133-21.333c11.379-17.067 26.313-30.754 44.8-41.067s38.754-15.467 60.8-15.467zM533.333 21.333c-98.846 24.887-180.445 81.6-244.8 170.133s-96.533 186.846-96.533 294.933v260.267l341.333 128 341.333-128v-242.133c-13.513 5.687-27.379 10.846-41.6 15.467s-28.8 8-43.733 10.133v156.8l-256 96-256-96v-200.533c0-33.421 4.445-66.846 13.333-100.267s21.333-65.246 37.333-95.467c16-30.221 35.378-58.133 58.133-83.733s48-46.933 75.733-64c7.821-22.754 18.133-44.446 30.933-65.067s27.379-39.113 43.733-55.467c-0.713 0-1.246-0.179-1.6-0.533s-0.887-0.533-1.6-0.533zM746.667 21.333c-59.021 0-109.333 20.8-150.933 62.4s-62.4 91.913-62.4 150.933c0 59.021 20.8 109.333 62.4 150.933s91.913 62.4 150.933 62.4c59.021 0 109.333-20.8 150.933-62.4s62.4-91.913 62.4-150.933c0-59.021-20.8-109.333-62.4-150.933s-91.913-62.4-150.933-62.4z" />
<glyph unicode="&#xe91c;" glyph-name="05" horiz-adv-x="1612" d="M718.833 531.508v-162.909c0-78.032-8.53-144.656-25.592-199.871-16.559-54.761-40.646-99.255-72.26-133.475-31.613-34.228-69.499-59.325-113.658-75.298-43.657-15.973-92.583-23.955-146.778-23.955-43.155 0-83.299 5.019-120.432 15.058-36.632 10.039-69.75 25.785-99.357 47.23s-54.947 49.060-76.023 82.826c-20.574 34.22-36.632 75.064-48.173 122.522-11.040 47.458-16.56 102.445-16.56 164.962v162.909c0 78.489 8.531 144.656 25.592 198.502 17.061 54.303 41.399 98.339 73.013 132.107 31.613 34.225 69.248 59.095 112.905 74.61 44.159 15.515 93.336 23.273 147.531 23.273 43.657 0 83.801-5.020 120.432-15.059 37.133-9.583 70.252-24.87 99.357-45.861 29.606-20.991 54.696-48.37 75.27-82.139 21.076-33.312 37.133-73.697 48.173-121.155 11.040-47.002 16.559-101.761 16.559-164.278zM537.431 345.326v210.823c0 39.701-2.509 74.61-7.527 104.728-5.018 30.574-12.545 56.357-22.581 77.347-9.534 21.448-21.578 38.789-36.13 52.022-14.553 13.69-31.112 23.501-49.679 29.433-18.566 6.388-39.391 9.583-62.474 9.583-28.101 0-53.192-5.019-75.271-15.059-22.079-9.583-40.646-25.098-55.701-46.546s-26.595-49.74-34.624-84.877c-7.527-34.681-11.291-76.891-11.291-126.631v-210.823c0-40.157 2.509-75.523 7.527-106.096s12.545-56.813 22.581-78.716c10.036-21.448 22.080-39.244 36.13-53.388 14.553-13.69 31.112-23.728 49.679-30.124 19.068-6.387 39.893-9.577 62.474-9.577 28.603 0 53.944 5.019 76.024 15.058s40.646 26.011 55.7 47.913c15.054 22.36 26.344 51.337 33.872 86.931s11.291 78.26 11.291 128zM1071.096 413.091l-144.518 32.171 59.468 501.048h590.873v-139.637h-440.337l-30.107-244.363c17.064 9.126 40.649 18.025 70.757 26.695 30.107 9.126 64.478 13.69 103.122 13.69 51.687 0 97.851-7.758 138.492-23.272 41.153-15.060 76.028-37.191 104.633-66.396 28.596-28.748 50.428-63.886 65.486-105.412 15.049-41.069 22.578-87.387 22.578-138.952 0-46.089-7.529-89.212-22.578-129.369-14.554-40.159-36.637-75.521-66.241-106.098-29.604-30.569-66.988-54.532-112.153-71.873-44.662-16.879-97.599-25.323-158.821-25.323-45.66 0-89.575 5.934-131.727 17.794-41.648 12.322-79.033 30.351-112.153 54.079-33.112 24.182-59.711 53.844-79.78 88.979-20.077 35.597-31.618 76.439-34.631 122.527h177.639c4.516-32.399 14.302-60.007 29.36-82.823 15.553-22.363 36.125-39.469 61.717-51.338 25.592-11.86 55.204-17.794 88.819-17.794 30.611 0 56.958 4.793 79.041 14.37 22.075 10.039 40.389 24.19 54.943 42.441 15.058 18.709 26.095 40.613 33.121 65.711 7.529 25.098 11.289 52.934 11.289 83.508 0 29.206-4.264 55.9-12.8 80.086-8.024 24.185-20.321 45.176-36.881 62.973-16.057 17.797-36.377 31.486-60.97 41.069-24.584 10.039-52.937 15.059-85.051 15.059-43.159 0-76.28-5.704-99.362-17.112-22.578-11.408-43.654-25.555-63.228-42.439z" />
<glyph unicode="&#xe91d;" glyph-name="04" horiz-adv-x="1489" d="M654.592 531.508v-162.909c0-78.032-7.768-144.656-23.305-199.872-15.080-54.761-37.014-99.25-65.802-133.477s-63.289-59.322-103.501-75.295c-39.755-15.973-84.309-23.955-133.66-23.955-39.299 0-75.855 5.019-109.67 15.057-33.358 10.038-63.517 25.786-90.477 47.228-26.961 21.45-50.037 49.059-69.229 82.828-18.735 34.226-33.358 75.062-43.868 122.523-10.053 47.458-15.080 102.446-15.080 164.963v162.909c0 78.489 7.768 144.656 23.305 198.502 15.537 54.303 37.699 98.339 66.488 132.108 28.788 34.224 63.060 59.094 102.815 74.609 40.213 15.515 84.994 23.273 134.346 23.273 39.756 0 76.312-5.020 109.67-15.059 33.814-9.583 63.974-24.87 90.477-45.861 26.961-20.991 49.808-48.371 68.544-82.139 19.192-33.312 33.815-73.697 43.868-121.155 10.053-47.002 15.079-101.762 15.079-164.278zM489.402 345.326v210.824c0 39.7-2.285 74.609-6.855 104.727-4.569 30.574-11.424 56.356-20.563 77.348-8.682 21.447-19.649 38.788-32.901 52.021-13.252 13.691-28.331 23.502-45.239 29.434-16.908 6.388-35.871 9.583-56.892 9.583-25.589 0-48.438-5.020-68.544-15.059-20.106-9.583-37.014-25.098-50.722-46.545s-24.218-49.74-31.53-84.877c-6.855-34.681-10.282-76.892-10.282-126.631v-210.824c0-40.157 2.285-75.522 6.855-106.096s11.424-56.81 20.563-78.718c9.139-21.45 20.106-39.246 32.901-53.388 13.252-13.692 28.331-23.73 45.239-30.123 17.365-6.384 36.328-9.581 56.892-9.581 26.046 0 49.123 5.019 69.229 15.057s37.014 26.011 50.722 47.919c13.709 22.357 23.99 51.332 30.845 86.929 6.855 35.593 10.282 78.26 10.282 128zM1489.455 304.941v-131.42h-719.709l-5.483 99.249 430.451 673.54h132.29l-143.251-245.048-247.443-396.321h553.146zM1364.705 946.31v-996.618h-165.19v996.618h165.19z" />
<glyph unicode="&#xe91e;" glyph-name="03" horiz-adv-x="1456" d="M656.272 531.508v-162.909c0-78.032-7.788-144.656-23.365-199.87-15.119-54.757-37.109-99.252-65.971-133.477s-63.452-59.324-103.767-75.298c-39.858-15.967-84.526-23.954-134.004-23.954-39.399 0-76.049 5.021-109.951 15.057-33.444 10.043-63.68 25.782-90.71 47.233-27.030 21.443-50.165 49.053-69.407 82.823-18.783 34.224-33.444 75.063-43.981 122.524-10.079 47.458-15.118 102.446-15.118 164.963v162.909c0 78.488 7.788 144.656 23.365 198.502 15.576 54.303 37.796 98.339 66.658 132.107 28.862 34.225 63.223 59.094 103.080 74.61 40.315 15.515 85.212 23.273 134.69 23.273 39.858 0 76.508-5.020 109.952-15.059 33.902-9.583 64.138-24.87 90.71-45.861 27.030-20.991 49.936-48.371 68.72-82.139 19.241-33.312 33.902-73.697 43.98-121.155 10.079-47.002 15.119-101.761 15.119-164.278zM490.658 345.326v210.823c0 39.701-2.291 74.609-6.872 104.727-4.581 30.574-11.454 56.357-20.616 77.348-8.705 21.448-19.699 38.788-32.986 52.021-13.285 13.69-28.404 23.501-45.355 29.434-16.951 6.388-35.963 9.582-57.038 9.582-25.655 0-48.562-5.019-68.72-15.059-20.158-9.582-37.108-25.098-50.853-46.545s-24.281-49.74-31.611-84.877c-6.872-34.681-10.308-76.891-10.308-126.631v-210.823c0-40.157 2.291-75.522 6.872-106.096s11.453-56.81 20.616-78.716c9.163-21.451 20.158-39.246 32.986-53.392 13.285-13.691 28.403-23.726 45.355-30.113 17.409-6.394 36.421-9.588 57.037-9.588 26.114 0 49.249 5.021 69.407 15.057 20.158 10.043 37.108 26.017 50.852 47.916 13.744 22.361 24.052 51.337 30.924 86.933 6.872 35.593 10.308 78.26 10.308 128zM998.499 522.609h98.956c38.48 0 70.322 6.617 95.52 19.85 25.653 13.234 44.662 31.487 57.033 54.76s18.553 49.967 18.553 80.085c0 31.487-5.727 58.41-17.18 80.77-10.991 22.816-27.944 40.385-50.851 52.706-22.445 12.321-51.079 18.481-85.895 18.481-29.324 0-55.895-5.932-79.72-17.796-23.362-11.408-41.916-27.836-55.66-49.283-13.744-20.991-20.617-46.090-20.617-75.294h-166.298c0 52.934 13.972 99.936 41.916 141.006s65.968 73.24 114.074 96.513c48.56 23.729 103.083 35.594 163.552 35.594 64.595 0 120.946-10.724 169.051-32.171 48.56-20.991 86.357-52.478 113.391-94.46 27.026-41.982 40.543-94.004 40.543-156.064 0-28.292-6.645-57.041-19.926-86.246-13.289-29.205-32.988-55.901-59.104-80.086-26.116-23.729-58.641-43.123-97.583-58.181-38.935-14.602-84.067-21.904-135.373-21.904h-124.382v91.722zM998.499 393.925v90.353h124.382c58.641 0 108.574-6.846 149.807-20.535 41.688-13.69 75.594-32.627 101.702-56.812 26.116-23.729 45.132-50.881 57.041-81.455 12.371-30.574 18.553-62.973 18.553-97.197 0-46.549-8.473-88.070-25.426-124.578-16.49-36.052-40.088-66.621-70.785-91.72-30.69-25.099-66.659-44.040-107.884-56.813-40.778-12.781-85.212-19.168-133.317-19.168-43.069 0-84.294 5.932-123.699 17.795-39.397 11.863-74.676 29.438-105.829 52.709-31.152 23.726-55.888 53.157-74.213 88.299-17.871 35.59-26.798 76.663-26.798 123.207h165.607c0-29.659 6.872-55.904 20.617-78.72 14.207-22.354 33.906-39.928 59.104-52.702 25.653-12.781 54.977-19.168 87.958-19.168 34.816 0 64.831 6.159 90.021 18.485 25.198 12.318 44.442 30.568 57.731 54.757 13.744 24.182 20.609 53.392 20.609 87.615 0 38.788-7.555 70.274-22.672 94.46s-36.652 41.982-64.595 53.39c-27.951 11.865-60.932 17.797-98.956 17.797h-98.956z" />
<glyph unicode="&#xe91f;" glyph-name="02" horiz-adv-x="1478" d="M657.817 531.508v-162.909c0-78.033-7.806-144.657-23.42-199.874-15.154-54.757-37.196-99.251-66.127-133.474s-63.6-59.323-104.011-75.291c-39.951-15.976-84.724-23.96-134.319-23.96-39.492 0-76.229 5.020-110.21 15.060-33.522 10.040-63.83 25.785-90.923 47.227-27.094 21.45-50.284 49.060-69.57 82.829-18.828 34.223-33.522 75.060-44.084 122.521-10.103 47.458-15.154 102.445-15.154 164.963v162.909c0 78.488 7.807 144.656 23.42 198.502 15.613 54.304 37.885 98.339 66.815 132.108 28.93 34.224 63.371 59.094 103.322 74.609 40.41 15.515 85.412 23.273 135.007 23.273 39.951 0 76.688-5.020 110.21-15.059 33.981-9.583 64.289-24.87 90.924-45.861 27.094-20.991 50.054-48.371 68.881-82.139 19.287-33.312 33.981-73.697 44.084-121.155 10.102-47.002 15.154-101.762 15.154-164.278zM491.813 345.326v210.824c0 39.7-2.296 74.61-6.888 104.727-4.593 30.574-11.48 56.356-20.665 77.347-8.725 21.447-19.745 38.788-33.063 52.022-13.317 13.689-28.471 23.5-45.462 29.433-16.991 6.389-36.048 9.583-57.172 9.583-25.715 0-48.676-5.020-68.881-15.059-20.205-9.583-37.196-25.098-50.972-46.546s-24.338-49.739-31.685-84.877c-6.888-34.681-10.332-76.892-10.332-126.631v-210.824c0-40.156 2.297-75.522 6.889-106.096s11.48-56.816 20.664-78.72c9.184-21.442 20.205-39.243 33.064-53.387 13.317-13.689 28.47-23.729 45.462-30.119 17.45-6.39 36.507-9.578 57.171-9.578 26.175 0 49.365 5.012 69.57 15.052s37.196 26.016 50.972 47.92c13.776 22.359 24.109 51.331 30.997 86.928 6.888 35.594 10.332 78.261 10.332 128zM1478.194 81.115v-131.426h-672.283v112.94l326.502 353.884c35.817 40.157 64.058 74.838 84.723 104.043s35.124 55.444 43.393 78.716c8.723 23.729 13.089 46.774 13.089 69.134 0 31.487-5.975 59.095-17.908 82.824-11.48 24.185-28.472 43.123-50.977 56.813-22.497 14.146-49.822 21.219-81.966 21.219-37.195 0-68.423-7.986-93.677-23.957-25.261-15.972-44.317-38.104-57.175-66.396-12.858-27.836-19.287-59.779-19.287-95.829h-166.003c0 57.953 13.32 110.888 39.951 158.802 26.632 48.371 65.205 86.703 115.72 114.995 50.515 28.749 111.362 43.123 182.534 43.123 67.045 0 123.989-11.18 170.831-33.54 46.835-22.36 82.428-54.075 106.765-95.144 24.799-41.069 37.195-89.669 37.195-145.797 0-31.030-5.051-61.833-15.152-92.406s-24.568-61.148-43.401-91.722c-18.363-30.118-40.175-60.464-65.436-91.037-25.254-30.118-53.040-60.692-83.344-91.722l-216.98-237.516h462.886z" />
<glyph unicode="&#xe920;" glyph-name="01" horiz-adv-x="1262" d="M659.549 531.508v-162.909c0-78.032-7.827-144.658-23.481-199.87-15.194-54.763-37.294-99.251-66.3-133.478s-63.768-59.322-104.285-75.292c-40.056-15.97-84.947-23.959-134.672-23.959-39.596 0-76.43 5.022-110.5 15.058-33.61 10.037-63.998 25.782-91.163 47.23s-50.416 49.054-69.754 82.825c-18.877 34.227-33.61 75.068-44.2 122.522-10.129 47.462-15.194 102.446-15.194 164.963v162.909c0 78.488 7.827 144.656 23.481 198.503 15.654 54.303 37.985 98.338 66.991 132.107 29.007 34.225 63.538 59.095 103.594 74.61 40.517 15.515 85.638 23.273 135.363 23.273 40.056 0 76.89-5.020 110.5-15.059 34.071-9.583 64.459-24.87 91.163-45.861 27.165-20.991 50.186-48.37 69.062-82.139 19.337-33.312 34.071-73.696 44.2-121.155 10.129-47.002 15.194-101.761 15.194-164.278zM493.108 345.326v210.823c0 39.7-2.303 74.61-6.906 104.727-4.604 30.574-11.511 56.356-20.719 77.348-8.747 21.447-19.798 38.788-33.15 52.021-13.352 13.69-28.546 23.501-45.581 29.433-17.036 6.389-36.142 9.583-57.322 9.583-25.784 0-48.805-5.020-69.063-15.058-20.258-9.583-37.293-25.099-51.106-46.546s-24.402-49.74-31.769-84.877c-6.906-34.681-10.359-76.891-10.359-126.631v-210.823c0-40.157 2.303-75.523 6.906-106.096s11.51-56.811 20.719-78.715c9.208-21.448 20.258-39.249 33.15-53.395 13.353-13.684 28.546-23.727 45.581-30.117 17.496-6.389 36.604-9.581 57.322-9.581 26.244 0 49.495 5.022 69.753 15.058s37.294 26.014 51.107 47.918c13.812 22.36 24.171 51.333 31.078 86.928s10.36 78.26 10.36 128zM1262.466 949.733v-1000.042h-166.442v804.277l-246.553-82.823v136.214l392.964 142.375h20.031z" />
<glyph unicode="&#xe921;" glyph-name="chevron-right" d="M512 422.4l-196.267 196.267-59.733-59.733 256-256 256 256-59.733 59.733-196.267-196.267z" />
<glyph unicode="&#xe923;" glyph-name="record-voice-over" horiz-adv-x="1067" d="M872.533 279.467l-66.133 66.133c31.287 29.154 55.821 63.642 73.6 103.467 17.779 39.821 26.667 82.133 26.667 126.931 0 44.8-8.887 86.755-26.667 125.867s-42.313 73.245-73.6 102.4l66.133 68.267c39.821-37.689 71.467-82.133 94.933-133.333s35.2-105.6 35.2-163.2c0-57.598-11.733-111.998-35.2-163.198s-55.113-95.646-94.933-133.333zM736 416l-68.267 68.267c12.8 12.087 23.113 25.775 30.933 41.067 7.821 15.287 11.733 32.176 11.733 50.665s-3.913 35.378-11.733 50.667c-7.821 15.289-18.133 28.978-30.933 41.067l68.267 68.267c22.754-20.622 40.533-44.622 53.333-72s19.2-56.711 19.2-88c0-31.289-6.4-60.623-19.2-87.998-12.8-27.379-30.579-51.379-53.333-72zM405.333 405.333c-46.933 0-87.111 16.708-120.533 50.133-33.422 33.421-50.133 73.6-50.133 120.531 0 46.933 16.711 87.111 50.133 120.533s73.6 50.133 120.533 50.133c46.933 0 87.113-16.711 120.533-50.133s50.133-73.6 50.133-120.533c0-46.931-16.713-87.11-50.133-120.531-33.421-33.425-73.6-50.133-120.533-50.133zM64 64v119.467c0 23.467 6.045 45.508 18.133 66.133 12.089 20.621 28.8 36.267 50.133 46.933 36.267 18.487 77.155 34.133 122.667 46.933s95.645 19.2 150.4 19.2c54.754 0 104.887-6.4 150.4-19.2s86.4-28.446 122.667-46.933c21.333-10.667 38.046-26.313 50.133-46.933 12.087-20.625 18.133-42.667 18.133-66.133v-119.467h-682.667zM149.333 149.333h512v34.133c0 7.821-1.954 14.933-5.867 21.333s-9.067 11.375-15.467 14.933c-25.6 12.8-58.487 25.6-98.667 38.4s-85.513 19.2-136 19.2c-50.489 0-95.822-6.4-136-19.2s-73.067-25.6-98.667-38.4c-6.4-3.558-11.555-8.533-15.467-14.933s-5.867-13.513-5.867-21.333v-34.133zM405.333 490.667c23.467 0 43.554 8.354 60.267 25.067 16.713 16.708 25.067 36.798 25.067 60.265s-8.354 43.555-25.067 60.267c-16.713 16.711-36.8 25.067-60.267 25.067s-43.555-8.355-60.267-25.067c-16.711-16.711-25.067-36.8-25.067-60.267s8.355-43.556 25.067-60.265c16.711-16.713 36.8-25.067 60.267-25.067z" />
<glyph unicode="&#xe924;" glyph-name="partner-exchange" horiz-adv-x="1067" d="M533.333 576l-149.333 149.333 149.333 149.333 149.333-149.333-149.333-149.333zM64 106.667v170.667c0 24.179 8.355 44.446 25.067 60.8s36.8 24.533 60.267 24.533h139.733c14.222 0 27.733-3.554 40.533-10.667s23.111-16.713 30.933-28.8c20.622-27.733 46.045-49.421 76.267-65.067s62.4-23.467 96.533-23.467c34.846 0 67.379 7.821 97.6 23.467s55.287 37.333 75.2 65.067c9.246 12.087 20.087 21.687 32.533 28.8s25.421 10.667 38.933 10.667h139.733c24.179 0 44.446-8.179 60.8-24.533s24.533-36.621 24.533-60.8v-170.667h-298.667v97.067c-24.887-17.779-51.733-31.287-80.533-40.533s-58.846-13.867-90.133-13.867c-30.579 0-60.446 4.8-89.6 14.4s-56.178 23.287-81.067 41.067v-98.133h-298.667zM192 405.333c-35.555 0-65.778 12.446-90.667 37.333s-37.333 55.113-37.333 90.667c0 36.267 12.445 66.667 37.333 91.2s55.111 36.8 90.667 36.8c36.267 0 66.667-12.267 91.2-36.8s36.8-54.933 36.8-91.2c0-35.554-12.267-65.779-36.8-90.667s-54.933-37.333-91.2-37.333zM874.667 405.333c-35.554 0-65.779 12.446-90.667 37.333s-37.333 55.113-37.333 90.667c0 36.267 12.446 66.667 37.333 91.2s55.113 36.8 90.667 36.8c36.267 0 66.667-12.267 91.2-36.8s36.8-54.933 36.8-91.2c0-35.554-12.267-65.779-36.8-90.667s-54.933-37.333-91.2-37.333z" />
<glyph unicode="&#xe925;" glyph-name="person-play" horiz-adv-x="1067" d="M255.983 430.933l-166.4 166.4 166.4 166.4 166.4-166.4-166.4-166.4zM405.317 21.333v213.333c-43.378 3.554-86.4 8.713-129.067 15.467s-84.978 15.821-126.933 27.2l21.333 85.333c59.733-16.354 119.645-27.554 179.733-33.6s121.066-9.067 182.933-9.067c61.867 0 122.846 3.021 182.933 9.067s120 17.246 179.733 33.6l21.333-85.333c-41.954-11.379-84.267-20.446-126.933-27.2s-85.687-11.913-129.067-15.467v-213.333h-256zM255.983 550.4l46.933 46.933-46.933 46.933-46.933-46.933 46.933-46.933zM533.316 661.333c-35.554 0-65.779 12.445-90.667 37.333s-37.333 55.111-37.333 90.667c0 35.555 12.445 65.778 37.333 90.667s55.113 37.333 90.667 37.333c35.554 0 65.779-12.445 90.667-37.333s37.333-55.111 37.333-90.667c0-35.555-12.446-65.778-37.333-90.667s-55.113-37.333-90.667-37.333zM533.316 362.667c-23.467 0-43.554 8.354-60.267 25.067s-25.067 36.8-25.067 60.267c0 23.467 8.354 43.554 25.067 60.267s36.8 25.067 60.267 25.067c23.467 0 43.554-8.354 60.267-25.067s25.067-36.8 25.067-60.267c0-23.467-8.354-43.554-25.067-60.267s-36.8-25.067-60.267-25.067zM533.316 746.667c12.087 0 22.221 4.089 30.4 12.267s12.267 18.311 12.267 30.4c0 12.089-4.087 22.222-12.267 30.4s-18.313 12.267-30.4 12.267c-12.087 0-22.221-4.089-30.4-12.267s-12.267-18.311-12.267-30.4c0-12.089 4.087-22.222 12.267-30.4s18.313-12.267 30.4-12.267zM748.783 448l-72.533 128 72.533 128h145.067l72.533-128-72.533-128h-145.067zM797.85 533.333h46.933l23.467 42.667-23.467 42.667h-46.933l-23.467-42.667 23.467-42.667z" />
<glyph unicode="&#xe926;" glyph-name="support-agent" d="M469.333 64v85.333h341.333v302.933c0 83.2-28.979 153.778-86.933 211.733s-128.533 86.933-211.733 86.933c-83.2 0-153.778-28.978-211.733-86.933s-86.933-128.533-86.933-211.733v-260.267h-42.667c-23.467 0-43.555 8.354-60.267 25.067s-25.067 36.8-25.067 60.267v85.333c0 14.933 3.733 28.979 11.2 42.133s17.955 23.646 31.467 31.467l3.2 56.533c5.689 48.355 19.733 93.155 42.133 134.4s50.489 77.155 84.267 107.733c33.778 30.578 72.533 54.4 116.267 71.467s89.779 25.6 138.133 25.6c48.354 0 94.221-8.533 137.6-25.6s82.133-40.711 116.267-70.933c34.133-30.222 62.221-65.955 84.267-107.2s36.267-86.045 42.667-134.4l3.2-55.467c13.513-6.4 24-16 31.467-28.8s11.2-26.313 11.2-40.533v-98.133c0-14.221-3.733-27.733-11.2-40.533s-17.954-22.4-31.467-28.8v-52.267c0-23.467-8.354-43.554-25.067-60.267s-36.8-25.067-60.267-25.067h-341.333zM384 362.667c-12.089 0-22.222 4.087-30.4 12.267s-12.267 18.313-12.267 30.4c0 12.087 4.089 22.221 12.267 30.4s18.311 12.267 30.4 12.267c12.089 0 22.222-4.087 30.4-12.267s12.267-18.313 12.267-30.4c0-12.087-4.089-22.221-12.267-30.4s-18.311-12.267-30.4-12.267zM640 362.667c-12.087 0-22.221 4.087-30.4 12.267s-12.267 18.313-12.267 30.4c0 12.087 4.087 22.221 12.267 30.4s18.313 12.267 30.4 12.267c12.087 0 22.221-4.087 30.4-12.267s12.267-18.313 12.267-30.4c0-12.087-4.087-22.221-12.267-30.4s-18.313-12.267-30.4-12.267zM257.067 428.8c-4.978 75.379 17.778 140.089 68.267 194.133s113.421 81.067 188.8 81.067c63.287 0 118.933-20.089 166.933-60.267s76.979-91.555 86.933-154.133c-64.713 0.713-124.267 18.133-178.667 52.267s-96.179 80.355-125.333 138.667c-11.379-56.889-35.379-107.555-72-152-36.622-44.446-81.6-77.687-134.933-99.733z" />
</font>
</defs>
</svg>
