<svg width="192" height="135" viewBox="0 0 192 135" fill="none" xmlns="http://www.w3.org/2000/svg">
<path d="M86.5203 56.4906V77.9679C86.5203 88.2553 85.4935 97.0388 83.44 104.318C81.4468 111.537 78.5477 117.403 74.7427 121.915C70.9376 126.427 66.3775 129.736 61.0625 131.842C55.8078 133.947 49.919 135 43.396 135C38.2018 135 33.37 134.338 28.9005 133.015C24.4914 131.691 20.5052 129.616 16.9417 126.788C13.3782 123.961 10.3281 120.321 7.79136 115.869C5.31503 111.357 3.38229 105.973 1.99314 99.7159C0.664379 93.4592 0 86.2099 0 77.9679V56.4906C0 46.143 1.02677 37.4198 3.0803 30.3209C5.13384 23.1618 8.06315 17.3563 11.8682 12.9044C15.6733 8.39238 20.2032 5.11364 25.4578 3.06818C30.7728 1.02273 36.6918 0 43.2148 0C48.4695 0 53.3013 0.661765 57.7104 1.98529C62.1799 3.24866 66.1661 5.26404 69.6692 8.03142C73.2327 10.7988 76.2526 14.4084 78.7289 18.8603C81.2656 23.252 83.1984 28.5762 84.5271 34.8329C85.8559 41.0294 86.5203 48.2487 86.5203 56.4906ZM64.6864 81.0361V53.242C64.6864 48.008 64.3844 43.4058 63.7804 39.4352C63.1764 35.4044 62.2704 32.0053 61.0625 29.238C59.9149 26.4104 58.4654 24.1243 56.7138 22.3797C54.9623 20.5749 52.9691 19.2814 50.7344 18.4993C48.4997 17.6571 45.9932 17.236 43.2148 17.236C39.8326 17.236 36.8126 17.8977 34.1551 19.2213C31.4976 20.4846 29.2629 22.5301 27.4509 25.3576C25.639 28.1852 24.2498 31.9151 23.2835 36.5475C22.3775 41.1197 21.9245 46.6845 21.9245 53.242V81.0361C21.9245 86.3302 22.2265 90.9926 22.8305 95.0234C23.4345 99.0541 24.3404 102.513 25.5484 105.401C26.7564 108.229 28.2059 110.575 29.8971 112.44C31.6486 114.245 33.6417 115.568 35.8765 116.41C38.1716 117.253 40.6781 117.674 43.396 117.674C46.8387 117.674 49.8888 117.012 52.5464 115.689C55.2039 114.365 57.4386 112.259 59.2505 109.372C61.0625 106.424 62.4214 102.604 63.3274 97.9111C64.2334 93.2186 64.6864 87.5936 64.6864 81.0361Z" fill="#9FD6FF" fill-opacity="0.5"/>
<path d="M131.638 57.6638H144.684C149.757 57.6638 153.955 56.7914 157.277 55.0468C160.659 53.3021 163.165 50.8957 164.796 47.8275C166.427 44.7594 167.242 41.24 167.242 37.2694C167.242 33.1183 166.487 29.5688 164.977 26.621C163.528 23.613 161.293 21.2968 158.273 19.6725C155.314 18.0481 151.539 17.236 146.949 17.236C143.083 17.236 139.58 18.018 136.439 19.5822C133.359 21.0862 130.913 23.252 129.101 26.0795C127.289 28.8469 126.383 32.1558 126.383 36.006H104.459C104.459 29.0274 106.301 22.8309 109.985 17.4164C113.669 12.002 118.682 7.7607 125.024 4.69251C131.426 1.56417 138.614 0 146.586 0C155.102 0 162.531 1.41377 168.873 4.24131C175.275 7.00869 180.258 11.1598 183.822 16.6945C187.385 22.2293 189.167 29.0876 189.167 37.2694C189.167 40.9993 188.291 44.7894 186.54 48.6397C184.788 52.49 182.191 56.0094 178.748 59.1979C175.305 62.3262 171.017 64.883 165.883 66.8683C160.75 68.7934 154.8 69.756 148.036 69.756H131.638V57.6638ZM131.638 74.629V62.7172H148.036C155.767 62.7172 162.35 63.6197 167.786 65.4245C173.282 67.2293 177.752 69.7259 181.194 72.9144C184.637 76.0428 187.144 79.6223 188.714 83.6531C190.345 87.6838 191.16 91.9552 191.16 96.4672C191.16 102.604 190.043 108.078 187.808 112.891C185.634 117.644 182.523 121.674 178.476 124.983C174.43 128.292 169.688 130.789 164.253 132.473C158.877 134.158 153.019 135 146.677 135C140.999 135 135.564 134.218 130.369 132.654C125.175 131.09 120.524 128.773 116.417 125.705C112.31 122.577 109.049 118.697 106.633 114.064C104.277 109.372 103.1 103.957 103.1 97.8209H124.933C124.933 101.731 125.839 105.191 127.651 108.199C129.524 111.146 132.121 113.463 135.443 115.147C138.825 116.832 142.691 117.674 147.039 117.674C151.629 117.674 155.586 116.862 158.907 115.237C162.229 113.613 164.766 111.207 166.518 108.018C168.33 104.83 169.235 100.979 169.235 96.4672C169.235 91.3536 168.239 87.2025 166.246 84.014C164.253 80.8255 161.414 78.4793 157.73 76.9753C154.045 75.4111 149.697 74.629 144.684 74.629H131.638Z" fill="#9FD6FF" fill-opacity="0.5"/>
</svg>
